<svg aria-hidden="true" style="position: absolute; width: 0; height: 0; overflow: hidden;" version="1.1" xmlns="http://www.w3.org/2000/svg" xmlns:xlink="http://www.w3.org/1999/xlink">
<defs>
<symbol id="icon-goit" viewBox="0 0 107 32">
<path fill="#222" style="fill: var(--color2, #222)" d="M0 16v16l23.68-0.213 23.68-0.32 5.013-6.933c2.773-3.84 5.12-7.68 5.12-8.533s-2.347-4.693-5.12-8.533l-5.013-6.933-23.68-0.32-23.68-0.213v16zM22.293 9.493c2.027 1.28 0.32 3.52-2.133 2.773-2.56-0.853-5.227 1.173-5.227 3.733 0 2.667 2.773 4.693 5.013 3.733 1.813-0.853 1.813-0.853 0.107-1.28-3.307-0.853-2.24-3.52 1.28-3.52 2.88 0 3.2 0.32 3.2 3.2 0 5.547-6.72 7.253-11.2 2.667-3.413-3.307-3.413-6.293 0-9.6 2.667-2.667 6.293-3.413 8.96-1.707zM41.28 10.88c3.307 3.093 3.2 7.573-0.32 10.347-1.6 1.28-3.627 2.24-4.693 2.24s-3.093-0.96-4.693-2.24c-3.733-2.987-3.733-7.467 0-10.453 3.627-2.88 6.613-2.88 9.707 0.107z"></path>
<path fill="#222" style="fill: var(--color2, #222)" d="M34.347 13.013c-2.987 2.987 0.32 8.853 3.52 6.187 1.92-1.6 2.027-4.48 0.32-6.187-1.6-1.6-2.24-1.6-3.84 0z"></path>
<path fill="#222" style="fill: var(--color2, #222)" d="M71.893 8.96c-0.32 0.747-0.427 4.48-0.213 8.213 0.32 6.4 0.427 6.827 3.093 7.147 1.493 0.213 3.2-0.32 3.84-1.067 1.493-1.92 2.88-15.147 1.493-14.293-0.533 0.427-1.28 0.213-1.707-0.427-0.96-1.6-5.867-1.28-6.507 0.427zM77.867 16c0 7.253-0.107 7.467-2.667 7.467s-2.667-0.213-2.667-7.467c0-7.253 0.107-7.467 2.667-7.467s2.667 0.213 2.667 7.467z"></path>
<path fill="#ff6347" style="fill: var(--color2, #222)" d="M85.013 8.213c1.92 0.213 5.333 0.213 7.467 0 2.24-0.213 0.747-0.427-3.413-0.427-4.053 0-5.867 0.213-4.053 0.427z"></path>
<path fill="#222" style="fill: var(--color2, #222)" d="M96 11.733c0 1.387-0.747 2.133-2.133 2.133-1.813 0-2.133 0.747-2.133 4.8 0 4.373-0.213 4.8-2.667 4.8s-2.667-0.427-2.667-4.8c0-4.053-0.32-4.8-2.133-4.8-1.173 0-2.133 0.427-2.133 1.067 0 0.533 0.64 1.067 1.493 1.067 1.067 0 1.707 1.387 1.92 3.947 0.32 3.733 0.64 4.053 3.52 4.053s3.2-0.32 3.52-4.053c0.213-2.133 0.853-3.947 1.387-3.947 1.707 0 4.16-2.88 4.16-4.693 0-0.96-0.427-1.707-1.067-1.707-0.533 0-1.067 0.96-1.067 2.133z"></path>
</symbol>
<symbol id="icon-rs_school" viewBox="0 0 89 32">
<path d="M44.353 9.885l4.235-0.266q0.139 1.032 0.561 1.572 0.689 0.875 1.965 0.875 0.952 0 1.469-0.446c0.31-0.244 0.509-0.617 0.515-1.036v-0.001c-0.006-0.403-0.192-0.762-0.481-1l-0.002-0.002q-0.483-0.441-2.279-0.836-2.928-0.657-4.177-1.749c-0.772-0.65-1.259-1.616-1.259-2.697 0-0.029 0-0.059 0.001-0.088l-0 0.004c0.003-0.782 0.244-1.506 0.653-2.107l-0.008 0.013c0.476-0.691 1.134-1.226 1.904-1.542l0.028-0.010q1.289-0.565 3.544-0.565 2.761 0 4.21 1.028t1.725 3.267l-4.196 0.245q-0.161-0.966-0.702-1.414t-1.482-0.446c-0.517 0-0.907 0.111-1.168 0.33-0.24 0.186-0.393 0.474-0.393 0.798 0 0.003 0 0.005 0 0.008v-0c0.008 0.253 0.132 0.475 0.32 0.617l0.002 0.001q0.314 0.285 1.493 0.532 2.919 0.628 4.188 1.272t1.836 1.596c0.361 0.594 0.575 1.312 0.575 2.080 0 0.019-0 0.037-0 0.056l0-0.003c0 0.007 0 0.015 0 0.023 0 0.943-0.286 1.82-0.776 2.548l0.010-0.016c-0.525 0.783-1.254 1.392-2.111 1.76l-0.031 0.012q-1.377 0.604-3.469 0.604-3.674 0-5.090-1.414t-1.611-3.6zM1.010 14.657v-14.411h7.419q2.063 0 3.154 0.353c0.732 0.239 1.337 0.699 1.752 1.3l0.007 0.011c0.422 0.623 0.673 1.39 0.673 2.217 0 0.041-0.001 0.082-0.002 0.123l0-0.006c0.001 0.031 0.001 0.067 0.001 0.103 0 0.722-0.192 1.4-0.527 1.985l0.010-0.019c-0.348 0.588-0.822 1.066-1.388 1.409l-0.018 0.010c-0.451 0.254-0.974 0.451-1.528 0.564l-0.035 0.006c0.441 0.132 0.825 0.312 1.175 0.54l-0.017-0.011c0.267 0.223 0.502 0.469 0.707 0.739l0.008 0.011c0.223 0.261 0.429 0.551 0.606 0.86l0.015 0.028 2.155 4.188h-5.030l-2.377-4.409q-0.453-0.855-0.805-1.111c-0.298-0.209-0.668-0.334-1.067-0.334-0.009 0-0.018 0-0.026 0h-0.395v5.853zM5.476 6.082h1.881c0.435-0.033 0.837-0.103 1.225-0.207l-0.046 0.011c0.297-0.058 0.549-0.222 0.719-0.45l0.002-0.003c0.175-0.223 0.28-0.507 0.28-0.816 0-0.006-0-0.013-0-0.019v0.001c0.002-0.024 0.002-0.052 0.002-0.080 0-0.394-0.172-0.747-0.444-0.99l-0.001-0.001q-0.441-0.374-1.661-0.374h-1.959zM0 26.989l4.235-0.264q0.139 1.032 0.561 1.572 0.681 0.875 1.97 0.875 0.952 0 1.469-0.448c0.31-0.244 0.509-0.617 0.515-1.036v-0.001c-0.006-0.403-0.192-0.762-0.481-1l-0.002-0.002q-0.483-0.441-2.279-0.834-2.928-0.66-4.177-1.749c-0.772-0.651-1.259-1.618-1.259-2.699 0-0.029 0-0.058 0.001-0.087l-0 0.004c0.004-0.782 0.244-1.506 0.653-2.107l-0.008 0.013c0.476-0.691 1.134-1.226 1.904-1.542l0.028-0.010q1.289-0.565 3.544-0.565 2.761 0 4.21 1.028t1.725 3.267l-4.188 0.246q-0.161-0.966-0.702-1.416t-1.48-0.441q-0.775 0-1.168 0.322c-0.24 0.186-0.393 0.474-0.393 0.798 0 0.003 0 0.005 0 0.008v-0c0.008 0.253 0.132 0.476 0.32 0.619l0.002 0.001q0.314 0.285 1.493 0.53 2.919 0.628 4.188 1.272t1.836 1.596c0.361 0.594 0.575 1.313 0.575 2.081 0 0.018-0 0.036-0 0.054l0-0.003c0 0.007 0 0.016 0 0.024 0 0.943-0.286 1.819-0.775 2.547l0.010-0.016c-0.525 0.783-1.254 1.392-2.111 1.76l-0.031 0.012q-1.377 0.604-3.469 0.604-3.674 0-5.090-1.414t-1.625-3.597zM26.255 25.86l3.901 1.179c-0.233 1.045-0.663 1.964-1.252 2.757l0.014-0.019c-0.545 0.713-1.249 1.277-2.060 1.647l-0.034 0.014q-1.253 0.559-3.189 0.559-2.348 0-3.837-0.681t-2.577-2.402q-1.082-1.719-1.081-4.399 0-3.573 1.901-5.494t5.38-1.92q2.724 0 4.28 1.102t2.313 3.383l-3.93 0.875c-0.101-0.367-0.248-0.689-0.44-0.979l0.008 0.013c-0.239-0.329-0.545-0.594-0.899-0.779l-0.014-0.007c-0.341-0.174-0.745-0.276-1.172-0.276-0.013 0-0.027 0-0.040 0l0.002-0q-1.512 0-2.318 1.218-0.612 0.904-0.61 2.836 0 2.394 0.728 3.283t2.044 0.887q1.276 0 1.933-0.717t0.95-2.079zM33.585 17.351h4.45v5.038h4.864v-5.038h4.47v14.405h-4.47v-5.823h-4.864v5.828h-4.45zM50.14 24.562q0-3.524 1.965-5.493t5.476-1.965q3.595 0 5.541 1.933t1.951 5.407q0 2.527-0.85 4.143c-0.563 1.070-1.403 1.928-2.426 2.499l-0.031 0.016q-1.611 0.899-4.004 0.899-2.435 0-4.027-0.776c-1.099-0.553-1.983-1.395-2.573-2.427l-0.016-0.030q-1.008-1.678-1.007-4.206zM54.59 24.583q0 2.183 0.805 3.134t2.207 0.952q1.435 0 2.221-0.933t0.786-3.35q0-2.034-0.821-2.973t-2.226-0.937c-0.029-0.001-0.063-0.002-0.097-0.002-0.822 0-1.558 0.367-2.053 0.945l-0.003 0.004q-0.817 0.966-0.818 3.16z"></path>
<path d="M63.185 24.562q0-3.524 1.965-5.493t5.476-1.965q3.598 0 5.542 1.933t1.944 5.409q0 2.527-0.849 4.143c-0.564 1.069-1.403 1.928-2.426 2.499l-0.031 0.016q-1.611 0.899-4.004 0.899-2.437 0-4.027-0.776c-1.099-0.553-1.984-1.395-2.574-2.427l-0.016-0.030q-1.002-1.68-1.002-4.207zM67.637 24.583q0 2.183 0.805 3.134t2.21 0.954q1.435 0 2.221-0.933t0.786-3.35q0-2.034-0.82-2.973t-2.226-0.937c-0.031-0.001-0.067-0.002-0.104-0.002-0.821 0-1.556 0.366-2.051 0.944l-0.003 0.004q-0.82 0.966-0.818 3.16z"></path>
<path d="M77.649 17.351h4.452v10.858h6.947v3.544h-11.399z"></path>
</symbol>
<symbol id="icon-stepik_logo" viewBox="0 0 126 32">
<path fill="#222" style="fill: var(--color1, #222)" d="M106.133 23.718c-0.627 0-1.161-0.533-1.161-1.161v-14.274c0-0.627 0.502-1.161 1.161-1.161 0.627 0 1.161 0.502 1.161 1.161v14.274c0 0.627-0.533 1.161-1.161 1.161z"></path>
<path fill="#222" style="fill: var(--color1, #222)" d="M66.635 20.424c-0.471-0.376-1.129-0.314-1.537 0.157-1.035 1.286-3.608 0.973-4.267 0.69-0.973-0.376-1.443-1.192-1.443-2.384v-7.812h5.114c0.627 0 1.161-0.502 1.161-1.161 0-0.627-0.502-1.161-1.161-1.161h-5.114v-5.835c0-0.596-0.471-1.098-1.098-1.098-0.596 0-1.067 0.471-1.067 1.098v15.969c0 2.071 1.004 3.671 2.792 4.392 0.565 0.22 1.443 0.408 2.416 0.408 1.537 0 3.294-0.439 4.361-1.757 0.376-0.471 0.314-1.129-0.157-1.506z"></path>
<path fill="#222" style="fill: var(--color1, #222)" d="M48.878 23.78c-0.345 0-0.722-0.031-1.067-0.063-3.765-0.471-6.024-2.227-6.024-4.643 0-0.627 0.502-1.161 1.161-1.161 0.627 0 1.161 0.533 1.161 1.161 0 1.129 1.569 2.039 4.016 2.353s4.173-0.91 4.424-1.851c0.157-0.565 0.094-1.067-0.157-1.474-0.282-0.439-0.753-0.722-1.474-0.878-4.925-0.878-8.188-1.694-8.659-4.8-0.157-1.129 0.157-2.259 0.91-3.137 1.067-1.255 2.918-1.976 5.082-1.976 3.953 0 6.526 1.757 6.526 4.518 0 0.627-0.533 1.161-1.161 1.161s-1.161-0.533-1.161-1.161c0-1.631-2.259-2.196-4.204-2.196-1.443 0-2.698 0.439-3.325 1.161-0.314 0.376-0.471 0.816-0.376 1.286 0.188 1.161 1.224 1.882 6.808 2.855h0.031c1.694 0.345 2.573 1.255 2.98 1.914 0.596 0.941 0.753 2.102 0.439 3.294-0.565 1.914-2.824 3.639-5.929 3.639z"></path>
<path fill="#222" style="fill: var(--color1, #222)" d="M75.482 23.78c-4.549 0-8.251-3.702-8.251-8.22 0-4.549 3.702-8.22 8.251-8.22 4.141 0 7.686 3.106 8.188 7.216 0.063 0.533-0.22 0.973-0.408 1.192-0.282 0.314-0.659 0.502-1.035 0.502h-12.643c0.314 2.949 2.855 5.271 5.898 5.271 2.039 0 4.11-1.067 4.988-2.541 0.314-0.565 1.035-0.722 1.569-0.408s0.753 1.035 0.408 1.569c-1.255 2.133-4.078 3.639-6.965 3.639zM69.773 13.898h11.42c-0.722-2.478-3.043-4.267-5.71-4.267-2.698 0-4.988 1.788-5.71 4.267z"></path>
<path fill="#222" style="fill: var(--color1, #222)" d="M94.086 7.31c-2.322 0-4.424 0.973-5.929 2.51v-1.38c0-0.627-0.533-1.161-1.161-1.161s-1.161 0.502-1.161 1.161v19.796c0 0.627 0.502 1.161 1.161 1.161 0.627 0 1.161-0.533 1.161-1.161v-6.996c1.506 1.569 3.608 2.51 5.929 2.51 4.549 0 8.22-3.702 8.22-8.22s-3.671-8.22-8.22-8.22zM94.086 21.459c-3.263 0-5.929-2.667-5.929-5.929s2.667-5.929 5.929-5.929c3.263 0 5.929 2.667 5.929 5.929s-2.667 5.929-5.929 5.929z"></path>
<path fill="#222" style="fill: var(--color1, #222)" d="M122.604 23.655c-1.129 0-2.259-0.502-3.294-1.474-0.784-0.753-5.804-5.804-5.992-6.024-0.22-0.22-0.345-0.502-0.345-0.816s0.126-0.596 0.345-0.816l6.902-6.745c0.471-0.439 1.192-0.439 1.631 0.031 0.439 0.439 0.439 1.192-0.031 1.631l-6.055 5.898c1.475 1.506 4.549 4.58 5.114 5.145 0.627 0.596 1.224 0.878 1.788 0.847 0.157 0 0.533 0 0.847 0 0.627 0 1.161 0.533 1.161 1.161s-0.533 1.129-1.161 1.161c-0.314 0-0.627 0-0.784 0-0.031 0-0.094 0-0.126 0z"></path>
<path fill="#222" style="fill: var(--color1, #222)" d="M111.435 23.686c-0.627 0-1.161-0.502-1.161-1.161v-19.639c0-0.627 0.533-1.161 1.161-1.161s1.161 0.502 1.161 1.161v19.639c0 0.659-0.533 1.161-1.161 1.161z"></path>
<path fill="#222" style="fill: var(--color1, #222)" d="M106.165 4.769c0.816 0 1.475-0.659 1.475-1.474s-0.659-1.474-1.475-1.474c-0.816 0-1.475 0.659-1.475 1.474s0.659 1.474 1.475 1.474z"></path>
<path fill="#fff" style="fill: var(--color1, #fff)" d="M29.114 8.565l-5.145-5.176c-2.008-1.976-4.643-3.075-7.467-3.075s-5.459 1.098-7.435 3.075l-5.145 5.176c-2.008 1.976-3.106 4.612-3.106 7.435s1.098 5.459 3.075 7.435l5.145 5.145c1.976 1.976 4.643 3.075 7.435 3.075 2.729 0 5.333-1.035 7.31-2.949v0 0l5.271-5.271c1.976-1.976 3.074-4.643 3.074-7.435 0.063-2.824-1.004-5.459-3.012-7.435z"></path>
<path fill="#222" style="fill: var(--color2, #222)" d="M20.298 25.067c-0.973 0.941-2.322 1.537-3.765 1.537-1.506 0-2.855-0.596-3.859-1.6l2.541-2.541c0.345 0.345 0.784 0.533 1.318 0.533 0.502 0 0.973-0.22 1.318-0.533l5.145-5.145c0.345-0.345 0.533-0.784 0.533-1.318 0-0.502-0.22-0.973-0.533-1.318-0.345-0.345-0.784-0.533-1.318-0.533s-0.973 0.22-1.318 0.533l-5.145 5.176c-0.973 0.973-2.353 1.6-3.859 1.6s-2.855-0.627-3.859-1.6c-0.973-0.973-1.6-2.353-1.6-3.859s0.596-2.855 1.6-3.859l5.145-5.145c0.973-0.973 2.353-1.6 3.859-1.6s2.855 0.596 3.859 1.6l-2.541 2.541c-0.345-0.345-0.784-0.533-1.318-0.533s-0.973 0.22-1.318 0.533l-5.145 5.145c-0.345 0.345-0.533 0.784-0.533 1.318 0 0.502 0.22 0.973 0.533 1.318 0.345 0.345 0.784 0.533 1.318 0.533 0.502 0 0.973-0.22 1.318-0.533l5.145-5.145c0.973-0.973 2.353-1.6 3.859-1.6s2.855 0.596 3.859 1.6c0.973 0.973 1.6 2.353 1.6 3.859s-0.596 2.855-1.6 3.859l-5.239 5.176z"></path>
</symbol>
</defs>
</svg>
